<?xml version="1.0" standalone="no"?>
<!DOCTYPE svg PUBLIC "-//W3C//DTD SVG 20010904//EN"
 "http://www.w3.org/TR/2001/REC-SVG-20010904/DTD/svg10.dtd">
<svg version="1.0" xmlns="http://www.w3.org/2000/svg"
 width="840.000000pt" height="687.000000pt" viewBox="0 0 840.000000 687.000000"
 preserveAspectRatio="xMidYMid meet">

<g transform="translate(0.000000,687.000000) scale(0.100000,-0.100000)"
fill="#000000" stroke="none">
<path d="M4125 6643 c-1227 -103 -2276 -876 -2735 -2016 -27 -65 -50 -120 -52
-122 -2 -2 -85 -16 -183 -30 -154 -23 -206 -26 -362 -23 l-181 3 -82 43 c-45
23 -91 42 -103 42 -40 0 -77 -34 -157 -145 -71 -97 -80 -114 -80 -153 0 -54
26 -82 127 -135 95 -50 225 -85 365 -99 l118 -12 0 -714 c0 -764 -1 -755 49
-782 12 -6 95 -10 200 -10 175 0 180 1 208 24 l29 25 33 -102 c158 -487 449
-951 817 -1307 508 -491 1119 -786 1834 -887 192 -27 654 -24 847 5 707 107
1304 400 1797 881 388 380 653 800 816 1296 23 72 44 131 45 133 2 2 14 -3 27
-12 88 -58 269 -78 378 -42 199 66 320 223 320 415 -1 140 -65 269 -236 475
-50 61 -91 112 -90 113 1 1 64 7 141 12 110 8 144 14 164 29 90 66 46 287 -82
415 -126 126 -340 172 -506 108 -30 -11 -55 -20 -56 -18 -1 1 -11 49 -24 107
-29 132 -108 377 -167 517 -54 131 -161 337 -239 463 -150 241 -421 555 -645
745 -497 422 -1103 681 -1754 750 -130 13 -462 18 -581 8z m700 -133 c474 -73
875 -227 1265 -486 678 -449 1159 -1153 1325 -1935 l23 -107 -39 -38 -38 -37
-6 39 c-84 490 -310 991 -625 1384 -107 133 -325 351 -455 455 -879 703 -2063
866 -3092 425 -371 -160 -670 -367 -968 -672 -256 -261 -434 -519 -585 -848
l-67 -145 -42 -8 c-24 -5 -45 -7 -47 -4 -6 6 69 183 122 289 170 338 427 676
701 920 472 420 1027 680 1638 768 189 28 195 28 485 25 211 -2 294 -7 405
-25z m-1279 -590 c54 -129 111 -214 225 -333 l89 -92 -36 64 c-98 171 -169
362 -162 434 3 29 7 32 38 35 52 5 229 -19 237 -32 4 -6 30 -61 58 -121 66
-142 97 -188 217 -311 l99 -101 -56 -5 c-36 -3 -66 -12 -85 -27 -28 -20 -32
-21 -59 -6 -37 19 -124 19 -253 1 -106 -16 -133 -26 -164 -63 -21 -24 -23 -25
-45 -9 -34 23 -79 19 -207 -18 l-113 -33 -70 43 c-149 92 -273 207 -309 286
-66 145 22 283 225 353 78 27 183 44 259 42 l69 -2 43 -105z m713 15 c139 -39
137 -37 185 -156 52 -129 80 -177 156 -267 l60 -72 -27 -14 c-25 -13 -30 -12
-58 7 -25 18 -49 23 -140 27 l-110 5 -62 102 c-69 116 -117 224 -140 320 -14
55 -14 66 -2 74 8 5 21 7 29 4 8 -2 57 -16 109 -30z m436 -149 c60 -25 111
-49 115 -53 4 -4 22 -53 40 -108 18 -55 44 -122 57 -148 13 -27 23 -51 21 -53
-2 -2 -33 1 -68 6 -36 5 -86 12 -113 15 -47 6 -48 7 -83 76 -35 70 -87 216
-98 277 -4 23 -2 32 8 32 8 0 62 -20 121 -44z m480 -245 c35 -23 42 -35 57
-91 24 -95 26 -91 -42 -83 -39 4 -70 1 -90 -7 -26 -11 -34 -11 -45 1 -20 21
-65 165 -72 233 l-6 60 79 -44 c43 -23 97 -55 119 -69z m276 -190 c88 -68 127
-104 107 -97 -92 28 -175 62 -185 74 -17 21 -17 72 1 72 7 0 42 -22 77 -49z
m-891 -74 c129 -147 193 -197 385 -297 l100 -52 -50 42 c-134 115 -305 313
-305 353 0 10 44 7 192 -14 l77 -11 61 -83 c33 -46 86 -107 118 -135 47 -42
215 -162 272 -195 8 -5 -22 31 -67 79 -79 83 -142 165 -193 250 l-24 39 55 -5
c77 -8 312 -89 432 -149 261 -131 387 -265 387 -413 0 -103 -49 -161 -190
-224 -213 -96 -604 -132 -1435 -132 -979 0 -1381 53 -1551 202 -129 114 -84
294 111 443 70 53 210 135 232 135 6 0 47 -35 90 -78 96 -97 174 -150 317
-217 174 -81 175 -81 66 1 -36 27 -98 80 -139 119 -73 69 -171 196 -171 221 0
8 10 20 23 28 24 15 195 66 222 66 9 0 65 -43 123 -96 117 -105 184 -147 337
-210 151 -62 158 -62 65 4 -149 105 -277 228 -315 302 -12 22 -12 30 -2 38 16
14 242 45 267 37 10 -3 50 -38 87 -77 97 -100 167 -149 317 -222 192 -93 196
-94 91 -15 -119 88 -305 283 -305 320 0 11 81 17 180 12 l85 -4 55 -62z
m-2312 -773 c7 -2 45 1 85 6 51 8 94 7 147 -1 77 -11 199 -45 213 -59 6 -5
-57 -181 -78 -217 0 -1 -23 4 -50 12 -206 62 -473 48 -1045 -55 -124 -22 -249
-43 -277 -47 l-53 -6 0 -773 0 -774 -145 0 -145 0 0 758 0 757 -113 1 c-132 1
-236 17 -328 50 -72 26 -155 69 -166 86 -3 6 8 24 25 39 18 16 32 34 32 40 0
15 69 109 80 109 5 0 25 -9 44 -21 59 -34 124 -50 256 -60 161 -12 289 -1 630
57 429 73 439 75 580 94 120 16 264 18 308 4z m2670 -392 c145 -46 264 -167
314 -322 28 -89 28 -239 0 -327 -20 -65 -68 -147 -101 -177 -19 -17 -19 -19 1
-78 49 -146 201 -404 323 -551 104 -125 168 -153 284 -123 35 9 66 16 71 16
13 0 34 -60 24 -69 -5 -4 -51 -25 -103 -45 -165 -65 -283 -50 -422 54 -151
113 -319 374 -383 593 -13 46 -20 56 -30 48 -7 -6 -42 -24 -77 -41 -42 -20
-54 -29 -33 -25 l31 6 6 -197 c4 -109 7 -236 7 -284 0 -73 3 -92 21 -114 11
-14 29 -26 40 -26 10 0 19 -5 19 -11 0 -15 -106 -6 -192 17 -35 9 -108 24
-163 34 -55 10 -86 18 -70 19 17 1 40 4 53 7 l22 6 0 639 0 639 130 0 130 0 0
-230 0 -231 28 15 c15 8 46 34 69 58 86 94 121 189 102 277 -25 120 -120 201
-235 201 -143 0 -278 -81 -330 -198 -4 -8 -214 104 -214 114 0 7 18 39 41 72
63 96 220 201 352 237 77 20 213 19 285 -3z m-3498 -49 c0 -5 -9 -55 -19 -113
-15 -84 -25 -115 -52 -156 -19 -28 -39 -60 -46 -70 -18 -29 -17 66 3 189 21
135 26 145 66 150 18 2 36 5 41 5 4 1 7 -1 7 -5z m6494 -96 c69 -32 148 -105
176 -162 22 -45 41 -140 33 -162 -5 -13 -43 -19 -170 -27 l-83 -5 0 58 c0 69
-21 103 -74 121 -62 20 -132 -25 -143 -93 -8 -53 39 -132 194 -319 195 -235
253 -343 253 -464 0 -119 -80 -237 -197 -292 -52 -24 -70 -27 -163 -27 -99 0
-110 2 -171 33 -71 34 -175 129 -229 207 -16 24 -30 46 -30 49 0 6 183 135
193 136 4 0 35 -33 67 -75 68 -85 131 -135 169 -135 61 0 121 69 107 123 -9
37 -74 127 -210 291 -228 275 -283 412 -222 557 39 93 135 176 236 204 79 22
194 14 264 -18z m-5912 3 c69 -20 130 -70 163 -134 26 -51 30 -73 33 -152 4
-86 2 -96 -25 -145 -65 -120 -169 -191 -283 -191 -70 -1 -140 16 -140 34 0 5
12 48 26 94 l26 84 44 0 c94 0 152 48 141 118 -15 94 -123 122 -227 60 -65
-39 -126 -122 -155 -213 -30 -91 -28 -307 3 -390 64 -171 185 -261 313 -234
77 17 139 73 204 183 9 16 20 13 115 -28 58 -24 106 -50 108 -58 5 -26 -74
-141 -138 -202 -106 -99 -216 -146 -345 -146 -136 0 -244 48 -355 160 -123
122 -187 271 -197 457 -16 293 110 546 330 664 104 55 246 71 359 39z m666
-339 l2 -354 95 101 c102 108 201 182 243 182 14 0 36 -10 49 -22 l23 -21 0
236 0 237 130 0 130 0 0 -670 0 -670 -130 0 -130 0 0 325 c0 179 -3 325 -6
325 -17 0 -110 -75 -185 -150 -134 -133 -209 -277 -217 -417 l-5 -83 -133 0
-134 0 0 663 c0 365 3 667 7 671 4 3 63 5 132 4 l126 -3 3 -354z m1451 202
c233 -735 291 -1236 166 -1421 -48 -71 -52 -71 -167 9 -57 40 -107 76 -111 79
-5 4 0 25 11 47 32 63 46 153 39 266 -10 157 -47 347 -69 347 -6 0 -47 -37
-92 -82 -89 -91 -149 -185 -212 -335 l-39 -93 -122 0 c-77 0 -123 4 -123 10 0
8 287 1165 321 1293 l10 37 169 0 169 0 50 -157z m1581 -382 l0 -539 43 -17
c127 -51 309 -19 409 73 34 31 50 25 121 -42 72 -69 85 -98 56 -134 -30 -39
-117 -102 -176 -128 -126 -57 -363 -59 -560 -5 -62 17 -122 35 -133 41 -20 11
-20 21 -20 650 l0 640 130 0 130 0 0 -539z m1426 430 c24 -57 44 -106 44 -108
0 -1 -110 -3 -245 -3 l-245 0 0 -155 0 -155 155 0 155 0 -63 -102 -62 -103
-123 -3 c-67 -1 -122 -6 -122 -11 0 -4 11 -14 25 -21 25 -13 25 -13 25 -165
l0 -153 58 -21 c158 -59 307 -40 410 53 l40 36 51 -82 c28 -46 51 -88 51 -94
0 -17 -82 -90 -127 -112 -78 -40 -152 -55 -278 -55 -130 1 -208 14 -367 63
l-98 31 0 634 0 635 336 -2 337 -3 43 -104z m644 -213 c0 -19 -2 -20 -10 -8
-13 19 -13 30 0 30 6 0 10 -10 10 -22z m-321 -375 c31 -41 32 -46 26 -105 -6
-58 -10 -65 -45 -91 -21 -15 -41 -27 -45 -27 -7 0 2 188 11 249 3 18 9 30 13
25 4 -5 22 -28 40 -51z m203 -250 c30 -38 63 -81 74 -97 18 -29 18 -29 -3 -18
-23 13 -143 166 -143 183 0 17 15 3 72 -68z m-6263 -255 c43 -56 57 -83 76
-155 96 -358 266 -702 504 -1021 128 -172 411 -455 583 -583 450 -335 938
-531 1480 -594 160 -18 492 -21 648 -5 1208 125 2211 944 2580 2107 23 73 47
137 54 142 9 8 20 3 39 -17 l27 -28 -31 -105 c-111 -375 -322 -764 -588 -1083
-432 -520 -1043 -894 -1697 -1041 -385 -86 -820 -99 -1204 -34 -937 158 -1752
742 -2215 1585 -146 268 -247 549 -321 894 -6 29 -6 29 65 -62z m1172 -887
c47 -58 6 -141 -71 -141 l-40 0 0 -40 c0 -36 -2 -40 -25 -40 l-25 0 0 118 c0
65 3 122 8 126 4 4 36 6 71 4 52 -3 67 -8 82 -27z m196 -91 c23 -63 42 -118
42 -122 1 -5 -10 -8 -25 -8 -19 0 -28 7 -35 30 -10 27 -16 30 -50 30 -35 0
-41 -3 -50 -30 -8 -22 -17 -30 -35 -30 -13 0 -24 2 -24 4 0 9 73 212 82 229 6
11 18 17 31 15 18 -2 29 -23 64 -118z m235 96 c33 -22 48 -57 48 -112 0 -39
-5 -51 -34 -80 -32 -32 -38 -34 -105 -34 l-71 0 0 126 0 127 68 -5 c39 -3 79
-12 94 -22z m212 -18 c9 -24 29 -80 45 -125 l30 -83 -29 0 c-23 0 -30 5 -35
30 -6 28 -10 30 -50 30 -40 0 -44 -2 -50 -30 -5 -25 -12 -30 -35 -30 l-29 0
40 113 c22 61 42 118 44 125 2 6 15 12 29 12 20 0 27 -8 40 -42z m231 32 c45
-17 56 -87 19 -124 -14 -15 -13 -20 10 -60 32 -55 32 -58 -1 -54 -21 2 -34 14
-51 46 -15 27 -30 42 -43 42 -16 0 -19 -7 -19 -45 0 -41 -2 -45 -25 -45 l-25
0 0 118 c0 65 3 122 7 125 10 10 98 8 128 -3z m145 -115 l0 -125 -25 0 -25 0
0 125 0 125 25 0 25 0 0 -125z m207 5 c23 -63 42 -118 43 -122 0 -5 -11 -8
-24 -8 -18 0 -27 8 -35 30 -9 27 -14 30 -51 30 -37 0 -42 -3 -51 -30 -8 -22
-17 -30 -35 -30 -13 0 -24 2 -24 5 0 7 78 224 85 236 4 5 17 9 28 7 18 -2 30
-24 64 -118z m308 95 c0 -17 -8 -20 -53 -23 -51 -3 -53 -4 -50 -30 3 -24 8
-27 46 -30 34 -3 42 -7 42 -23 0 -16 -7 -19 -45 -19 -43 0 -45 -1 -45 -30 0
-30 1 -30 55 -30 48 0 55 -2 55 -20 0 -18 -7 -20 -80 -20 l-80 0 0 118 c0 65
3 122 7 126 4 4 39 5 78 4 62 -3 70 -5 70 -23z m322 2 c13 -13 14 -19 4 -31
-11 -13 -17 -13 -46 0 -64 26 -124 -22 -111 -91 11 -58 66 -81 125 -51 25 13
28 13 39 -5 10 -16 8 -21 -12 -34 -61 -40 -149 -23 -186 37 -16 25 -20 44 -17
82 4 42 10 55 42 84 35 32 41 34 92 30 31 -3 61 -12 70 -21z m232 9 c42 -22
61 -58 61 -115 0 -119 -131 -172 -217 -86 -28 28 -33 40 -33 79 0 85 45 135
123 136 21 0 51 -7 66 -14z m208 -71 l53 -80 0 83 c0 81 0 82 25 82 l25 0 0
-125 0 -125 -25 0 c-20 0 -35 16 -80 82 l-55 83 0 -83 c0 -75 -2 -82 -20 -82
-19 0 -20 7 -20 126 0 124 0 125 22 122 16 -2 39 -28 75 -83z m303 60 c0 -23
-4 -25 -45 -25 -43 0 -45 -1 -45 -30 0 -28 2 -30 40 -30 33 0 40 -3 40 -20 0
-17 -7 -20 -40 -20 l-40 0 0 -50 c0 -47 -2 -50 -25 -50 l-25 0 0 125 0 125 70
0 c68 0 70 -1 70 -25z m190 0 c0 -23 -3 -25 -50 -25 -49 0 -50 -1 -50 -30 0
-28 2 -30 40 -30 33 0 40 -3 40 -20 0 -17 -7 -20 -40 -20 -38 0 -40 -2 -40
-30 0 -30 1 -30 55 -30 48 0 55 -2 55 -20 0 -18 -7 -20 -80 -20 l-80 0 0 125
0 125 75 0 c73 0 75 -1 75 -25z m100 -100 l0 -125 -25 0 -25 0 0 125 0 125 25
0 25 0 0 -125z m240 100 c0 -22 -4 -25 -40 -25 l-40 0 0 -100 0 -100 -25 0
-25 0 0 100 0 100 -40 0 c-36 0 -40 3 -40 25 l0 25 105 0 105 0 0 -25z m130
-7 c29 -80 70 -202 70 -210 0 -4 -11 -8 -24 -8 -19 0 -26 7 -31 30 -6 28 -10
30 -50 30 -40 0 -44 -2 -50 -30 -5 -25 -11 -30 -36 -30 l-29 0 40 113 c22 61
42 118 45 125 2 6 15 12 29 12 18 0 27 -8 36 -32z m234 21 c46 -21 57 -87 19
-124 -13 -14 -12 -20 11 -59 14 -25 26 -47 26 -50 0 -3 -13 -6 -28 -6 -23 0
-32 8 -50 45 -15 31 -28 45 -42 45 -17 0 -20 -7 -20 -45 0 -41 -2 -45 -25 -45
l-25 0 0 118 c0 65 3 122 7 125 11 11 100 8 127 -4z m146 -114 l0 -125 -25 0
-25 0 0 125 0 125 25 0 25 0 0 -125z m207 5 c23 -63 42 -118 42 -122 1 -5 -10
-8 -25 -8 -19 0 -28 7 -35 30 -10 27 -16 30 -50 30 -35 0 -41 -3 -50 -30 -8
-22 -17 -30 -35 -30 -13 0 -24 1 -24 3 0 10 70 208 79 226 8 15 20 21 34 19
18 -2 29 -23 64 -118z m-3255 -539 c204 -79 422 -133 664 -167 l121 -17 -1
-29 -1 -28 -60 5 c-304 30 -635 102 -826 180 -81 33 -97 56 -62 90 20 20 29
18 165 -34z m1988 39 c0 -6 -11 -32 -24 -58 -26 -51 -74 -101 -121 -125 l-30
-16 35 -1 c19 0 58 -11 85 -24 53 -25 124 -91 111 -103 -4 -5 -49 -8 -99 -8
-70 0 -100 4 -125 18 -53 29 -112 87 -112 111 0 34 66 131 107 158 69 45 173
73 173 48z m-300 -40 c0 -18 -37 -85 -66 -119 -14 -17 -43 -40 -63 -50 l-36
-19 40 -7 c54 -10 108 -38 156 -82 47 -42 42 -49 -43 -59 -38 -4 -72 -1 -110
10 -60 17 -143 75 -153 105 -13 41 50 144 112 182 67 42 163 64 163 39z m-530
-36 c0 -3 -14 -25 -31 -49 -35 -49 -91 -92 -151 -116 l-40 -15 41 -12 c44 -14
136 -92 164 -141 l18 -31 -73 0 c-56 0 -85 6 -125 24 -53 25 -115 82 -145 134
-18 30 -18 30 15 78 36 51 110 108 161 123 35 10 166 14 166 5z m1108 -7 l33
-12 -28 -27 c-73 -69 -178 -93 -278 -64 -57 17 -58 18 -39 36 10 11 44 33 74
49 48 27 65 31 130 30 41 0 90 -6 108 -12z m-838 -4 c0 -35 -89 -129 -145
-154 -34 -15 -37 -19 -20 -24 64 -21 101 -44 141 -88 24 -27 44 -53 44 -58 0
-14 -130 -10 -173 5 -51 19 -103 60 -134 107 l-26 39 38 55 c38 56 80 88 144
111 39 14 131 19 131 7z m250 -128 c0 -16 -35 -20 -67 -8 -18 8 -14 9 60 22 4
0 7 -6 7 -14z m-293 -35 c-1 -21 -39 -28 -66 -11 -11 7 -10 11 5 20 32 18 63
14 61 -9z m-287 -15 c0 -31 -23 -33 -63 -6 -32 21 -24 29 31 30 28 1 32 -2 32
-24z"/>
<path d="M4771 3424 c0 -11 3 -14 6 -6 3 7 2 16 -1 19 -3 4 -6 -2 -5 -13z"/>
<path d="M4765 2820 c3 -5 8 -10 11 -10 2 0 4 5 4 10 0 6 -5 10 -11 10 -5 0
-7 -4 -4 -10z"/>
<path d="M2440 3510 c0 -5 5 -10 11 -10 5 0 7 5 4 10 -3 6 -8 10 -11 10 -2 0
-4 -4 -4 -10z"/>
<path d="M2705 3260 c-3 -5 -1 -10 4 -10 6 0 11 5 11 10 0 6 -2 10 -4 10 -3 0
-8 -4 -11 -10z"/>
<path d="M2620 3040 c0 -5 5 -10 11 -10 5 0 7 5 4 10 -3 6 -8 10 -11 10 -2 0
-4 -4 -4 -10z"/>
<path d="M3285 3040 c3 -5 8 -10 11 -10 2 0 4 5 4 10 0 6 -5 10 -11 10 -5 0
-7 -4 -4 -10z"/>
<path d="M3845 3770 c3 -5 11 -10 16 -10 6 0 7 5 4 10 -3 6 -11 10 -16 10 -6
0 -7 -4 -4 -10z"/>
<path d="M3970 3770 c-9 -6 -10 -10 -3 -10 6 0 15 5 18 10 8 12 4 12 -15 0z"/>
<path d="M3888 3652 c-25 -75 -90 -363 -84 -369 3 -3 29 11 58 31 29 20 59 36
66 36 7 0 24 -11 37 -25 25 -24 25 -24 25 -2 0 61 -67 377 -80 377 -4 0 -14
-21 -22 -48z"/>
<path d="M4150 3531 c0 -6 4 -13 10 -16 6 -3 7 1 4 9 -7 18 -14 21 -14 7z"/>
<path d="M3640 3495 c0 -8 4 -15 10 -15 5 0 7 7 4 15 -4 8 -8 15 -10 15 -2 0
-4 -7 -4 -15z"/>
<path d="M3717 3409 c7 -7 15 -10 18 -7 3 3 -2 9 -12 12 -14 6 -15 5 -6 -5z"/>
<path d="M3970 3256 c0 -20 13 -27 29 -16 11 6 9 10 -8 19 -17 10 -21 9 -21
-3z"/>
<path d="M4115 3230 c-19 -8 -19 -9 2 -9 12 -1 25 4 28 9 7 12 -2 12 -30 0z"/>
<path d="M3831 3094 c0 -11 3 -14 6 -6 3 7 2 16 -1 19 -3 4 -6 -2 -5 -13z"/>
<path d="M3520 2991 c0 -12 5 -21 10 -21 6 0 10 6 10 14 0 8 -4 18 -10 21 -5
3 -10 -3 -10 -14z"/>
<path d="M4210 2901 c0 -5 9 -7 20 -4 11 3 20 7 20 9 0 2 -9 4 -20 4 -11 0
-20 -4 -20 -9z"/>
<path d="M3613 2890 c4 -18 37 -27 37 -10 0 6 -5 8 -11 4 -6 -3 -16 0 -21 7
-8 12 -9 11 -5 -1z"/>
<path d="M5760 2659 c0 -5 5 -7 10 -4 6 3 10 8 10 11 0 2 -4 4 -10 4 -5 0 -10
-5 -10 -11z"/>
<path d="M6465 3210 c3 -5 8 -10 11 -10 2 0 4 5 4 10 0 6 -5 10 -11 10 -5 0
-7 -4 -4 -10z"/>
<path d="M6800 2819 c0 -5 5 -7 10 -4 6 3 10 8 10 11 0 2 -4 4 -10 4 -5 0 -10
-5 -10 -11z"/>
<path d="M2450 1839 c0 -41 0 -41 32 -35 43 8 52 19 44 50 -5 22 -12 26 -41
26 -34 0 -35 -1 -35 -41z"/>
<path d="M2673 1815 c-11 -34 -11 -35 17 -35 28 0 28 1 17 35 -6 19 -13 35
-17 35 -4 0 -11 -16 -17 -35z"/>
<path d="M2880 1800 l0 -80 30 0 c43 0 80 39 80 85 0 46 -29 75 -75 75 l-35 0
0 -80z"/>
<path d="M3152 1831 c-17 -47 -15 -51 13 -51 28 0 28 1 11 50 l-13 34 -11 -33z"/>
<path d="M3350 1845 c0 -32 2 -35 30 -35 19 0 33 7 40 19 16 31 2 51 -36 51
-32 0 -34 -2 -34 -35z"/>
<path d="M3703 1815 c-11 -34 -11 -35 17 -35 28 0 28 1 17 35 -6 19 -13 35
-17 35 -4 0 -11 -16 -17 -35z"/>
<path d="M4553 1875 c-16 -7 -33 -20 -37 -30 -33 -88 68 -169 123 -99 56 71
-5 163 -86 129z"/>
<path d="M5772 1831 c-17 -47 -15 -51 13 -51 28 0 28 1 11 50 l-13 34 -11 -33z"/>
<path d="M5970 1845 c0 -30 3 -35 24 -35 30 0 59 27 52 47 -3 8 -6 17 -6 19 0
2 -16 4 -35 4 -33 0 -35 -2 -35 -35z"/>
<path d="M6323 1815 c-11 -34 -11 -35 17 -35 28 0 28 1 17 35 -6 19 -13 35
-17 35 -4 0 -11 -16 -17 -35z"/>
</g>
</svg>
